# xmcd
#
# Track frame offsets: 
#        150
#        15812
#        22997
#        34120
#        40910
#        51902
#        60050
#        67727
#        78477
#        91790
#        99130
#        109015
#        119745
#
# Disc length: 1735 seconds
#
# Revision: 0
# Processed by: cddbd v1.5.2PL0 Copyright (c) Steve Scherf et al.
# Submitted via: ExactAudioCopy v0.95b4
#
DISCID=8a06c50d
DTITLE=Phil Baugh - Live Wire!
DYEAR=1965
DGENRE=Country
TTITLE0=Country Guitar
TTITLE1=Dry Camel
TTITLE2=No Deposit, No Return
TTITLE3=The Finger
TTITLE4=Good Times
TTITLE5=Live Wire
TTITLE6=Lonesome Joe from Koko Mo
TTITLE7=I Know That Feeling
TTITLE8=Brand New World
TTITLE9=Take One
TTITLE10=Don't Tell Anyone (I Cried)
TTITLE11=Chattanooga
TTITLE12=One Man Band
EXTD=Phil Baugh (1936-12-13/1990-11-04): guitar\nVern Stovall: vocals\n
EXTD=Tracks 1 and 12 recorded El Monte US-CA, early 1964, and originally
EXTD=released on Claude McBride's Brookhurst label, then re-released 
EXTD=as Longhorn 45rpm LH-559 (1964).\nTracks 1-12 released (originall
EXTD=y for tracks 2-11) as Baugh's "Country Guitar", Longhorn LP-W02 (
EXTD=1965).\nTrack 13 recorded 1965 and released (along with track 6) 
EXTD=as Longhorn 45rpm LH-563 (1966).\nCD: Sundazed Music SC 6222 (200
EXTD=5-11-22), UPC 090771622228.
EXTT0=
EXTT1=
EXTT2=
EXTT3=
EXTT4=
EXTT5=
EXTT6=
EXTT7=
EXTT8=
EXTT9=
EXTT10=
EXTT11=
EXTT12=
PLAYORDER=
